<svg xmlns="http://www.w3.org/2000/svg" width="20" height="21" viewBox="0 0 20 21" fill="none">
<path d="M18.1456 12.0401L18.1456 12.0395C18.1996 10.9903 17.6518 9.85775 16.8121 9.37693L16.8121 9.37688C16.4108 9.14706 16.1003 9.14588 15.6032 9.20704C15.5458 9.21409 15.4841 9.22256 15.4183 9.23159C14.9174 9.30032 14.1809 9.40137 13.3539 9.15571L13.3534 9.15557C12.2292 8.82104 11.5201 8.05141 11.0499 7.20081C10.5968 6.38114 10.3262 5.41366 10.0987 4.5755C10.084 4.52116 10.0694 4.46734 10.055 4.41404C9.83281 3.5936 9.6445 2.89814 9.3736 2.33193C9.09589 1.75148 8.8011 1.45988 8.44539 1.33252C7.78126 1.09544 6.59591 1.31487 5.34336 2.09625C4.122 2.85817 3.18304 3.94602 2.90871 4.9371L2.90849 4.93787C2.73911 5.54788 2.83323 6.01867 2.98932 6.79954C3.0041 6.87346 3.01943 6.95016 3.03515 7.03001C3.21673 7.95267 3.37742 9.08131 2.89637 10.6089L2.89631 10.6091C2.59308 11.5713 2.22441 12.0891 1.93257 12.4861C1.67882 12.8313 1.57974 12.9675 1.51784 13.2956L1.51779 13.2958C1.34023 14.2357 1.79406 15.5794 2.907 16.8368C3.99439 18.0653 5.56091 19.0279 7.24582 19.2686L18.1456 12.0401ZM18.1456 12.0401C18.1079 12.7824 17.7579 13.4517 17.1328 14.1359C16.4941 14.8351 15.6483 15.4655 14.7244 16.1494M18.1456 12.0401L14.7244 16.1494M14.7244 16.1494C12.0523 18.1242 9.91001 19.6488 7.2459 19.2686L14.7244 16.1494Z" stroke="#CACACA" stroke-width="2"/>
</svg>